G04 #@! TF.GenerationSoftware,KiCad,Pcbnew,(5.1.6)-1*
G04 #@! TF.CreationDate,2020-09-28T13:24:55+09:00*
G04 #@! TF.ProjectId,mt_rpiprtcap,6d745f72-7069-4707-9274-6361702e6b69,rev?*
G04 #@! TF.SameCoordinates,Original*
G04 #@! TF.FileFunction,Soldermask,Top*
G04 #@! TF.FilePolarity,Negative*
%FSLAX46Y46*%
G04 Gerber Fmt 4.6, Leading zero omitted, Abs format (unit mm)*
G04 Created by KiCad (PCBNEW (5.1.6)-1) date 2020-09-28 13:24:55*
%MOMM*%
%LPD*%
G01*
G04 APERTURE LIST*
%ADD10C,1.624000*%
%ADD11C,3.600000*%
%ADD12R,0.550000X1.575000*%
%ADD13O,1.800000X1.800000*%
%ADD14R,1.800000X1.800000*%
%ADD15R,1.600000X1.350000*%
%ADD16R,1.350000X1.600000*%
%ADD17R,1.575000X0.550000*%
%ADD18R,1.600000X1.400000*%
%ADD19R,1.400000X1.600000*%
%ADD20R,0.400000X0.900000*%
%ADD21C,1.600000*%
%ADD22C,2.800000*%
G04 APERTURE END LIST*
D10*
X220420000Y-114212000D03*
X218261000Y-114212000D03*
X216102000Y-114212000D03*
X213943000Y-114212000D03*
X211784000Y-114212000D03*
X209625000Y-114212000D03*
X207466000Y-114212000D03*
X205307000Y-114212000D03*
X203148000Y-114212000D03*
X200989000Y-114212000D03*
X198830000Y-114212000D03*
X196671000Y-114212000D03*
X194512000Y-114212000D03*
X192353000Y-114212000D03*
X190194000Y-114212000D03*
X188035000Y-114212000D03*
X185876000Y-114212000D03*
X183717000Y-114212000D03*
X220420000Y-118502000D03*
X218261000Y-118502000D03*
X216102000Y-118502000D03*
X213943000Y-118502000D03*
X211784000Y-118502000D03*
X209625000Y-118502000D03*
X207466000Y-118502000D03*
X205307000Y-118502000D03*
X203148000Y-118502000D03*
X200989000Y-118502000D03*
X198830000Y-118502000D03*
X196671000Y-118502000D03*
X194512000Y-118502000D03*
X192353000Y-118502000D03*
X190194000Y-118502000D03*
X188035000Y-118502000D03*
X185876000Y-118502000D03*
X183717000Y-118502000D03*
D11*
X231940000Y-116357000D03*
X172197000Y-116357000D03*
D12*
X215804000Y-80589900D03*
X215154000Y-80589900D03*
X214504000Y-80589900D03*
X213854000Y-80589900D03*
X213204000Y-80589900D03*
X212554000Y-80589900D03*
X211904000Y-80589900D03*
X211254000Y-80589900D03*
X210604000Y-80589900D03*
X209954000Y-80589900D03*
X209304000Y-80589900D03*
X208654000Y-80589900D03*
X208654000Y-86465900D03*
X209304000Y-86465900D03*
X209954000Y-86465900D03*
X210604000Y-86465900D03*
X211254000Y-86465900D03*
X211904000Y-86465900D03*
X212554000Y-86465900D03*
X213204000Y-86465900D03*
X213854000Y-86465900D03*
X214504000Y-86465900D03*
X215154000Y-86465900D03*
X215804000Y-86465900D03*
D13*
X227203000Y-47345600D03*
X227203000Y-49885600D03*
X224663000Y-47345600D03*
X224663000Y-49885600D03*
X222123000Y-47345600D03*
X222123000Y-49885600D03*
X219583000Y-47345600D03*
X219583000Y-49885600D03*
X217043000Y-47345600D03*
X217043000Y-49885600D03*
X214503000Y-47345600D03*
X214503000Y-49885600D03*
X211963000Y-47345600D03*
X211963000Y-49885600D03*
X209423000Y-47345600D03*
X209423000Y-49885600D03*
X206883000Y-47345600D03*
X206883000Y-49885600D03*
X204343000Y-47345600D03*
X204343000Y-49885600D03*
X201803000Y-47345600D03*
X201803000Y-49885600D03*
X199263000Y-47345600D03*
X199263000Y-49885600D03*
X196723000Y-47345600D03*
X196723000Y-49885600D03*
X194183000Y-47345600D03*
X194183000Y-49885600D03*
X191643000Y-47345600D03*
X191643000Y-49885600D03*
X189103000Y-47345600D03*
X189103000Y-49885600D03*
X186563000Y-47345600D03*
X186563000Y-49885600D03*
X184023000Y-47345600D03*
X184023000Y-49885600D03*
X181483000Y-47345600D03*
X181483000Y-49885600D03*
X178943000Y-47345600D03*
D14*
X178943000Y-49885600D03*
D15*
X220345000Y-86690200D03*
X217845000Y-86690200D03*
X217845000Y-88722200D03*
X220345000Y-88722200D03*
X217895000Y-80543400D03*
X220395000Y-80543400D03*
D16*
X203365000Y-64751900D03*
X203365000Y-67251900D03*
X228016000Y-67310000D03*
X228016000Y-64810000D03*
X186398000Y-64853500D03*
X186398000Y-67353500D03*
D17*
X197367000Y-69411300D03*
X197367000Y-70061300D03*
X197367000Y-70711300D03*
X197367000Y-71361300D03*
X197367000Y-72011300D03*
X197367000Y-72661300D03*
X197367000Y-73311300D03*
X203243000Y-73311300D03*
X203243000Y-72661300D03*
X203243000Y-72011300D03*
X203243000Y-71361300D03*
X203243000Y-70711300D03*
X203243000Y-70061300D03*
X203243000Y-69411300D03*
X228007000Y-69424000D03*
X228007000Y-70074000D03*
X228007000Y-70724000D03*
X228007000Y-71374000D03*
X228007000Y-72024000D03*
X228007000Y-72674000D03*
X228007000Y-73324000D03*
X222131000Y-73324000D03*
X222131000Y-72674000D03*
X222131000Y-72024000D03*
X222131000Y-71374000D03*
X222131000Y-70724000D03*
X222131000Y-70074000D03*
X222131000Y-69424000D03*
X180361000Y-69360500D03*
X180361000Y-70010500D03*
X180361000Y-70660500D03*
X180361000Y-71310500D03*
X180361000Y-71960500D03*
X180361000Y-72610500D03*
X180361000Y-73260500D03*
X186237000Y-73260500D03*
X186237000Y-72610500D03*
X186237000Y-71960500D03*
X186237000Y-71310500D03*
X186237000Y-70660500D03*
X186237000Y-70010500D03*
X186237000Y-69360500D03*
D13*
X191186000Y-88188800D03*
D14*
X191186000Y-90728800D03*
D13*
X174980000Y-108191000D03*
D14*
X172440000Y-108191000D03*
X174942000Y-104102000D03*
D13*
X172402000Y-104102000D03*
X172377000Y-100012000D03*
D14*
X174917000Y-100012000D03*
X174942000Y-95885000D03*
D13*
X172402000Y-95885000D03*
X172402000Y-91821000D03*
D14*
X174942000Y-91821000D03*
D18*
X231044000Y-69100700D03*
X233744000Y-69100700D03*
X233773000Y-73825100D03*
X231073000Y-73825100D03*
D19*
X201752000Y-106172000D03*
X201752000Y-108872000D03*
X199301000Y-108864000D03*
X199301000Y-106164000D03*
X196926000Y-106164000D03*
X196926000Y-108864000D03*
X194526000Y-108859000D03*
X194526000Y-106159000D03*
X191211000Y-84467700D03*
X191211000Y-81767700D03*
X184328000Y-96563200D03*
X184328000Y-99263200D03*
X181407000Y-97917000D03*
X181407000Y-100617000D03*
X187185000Y-100609400D03*
X187185000Y-97909400D03*
X181407000Y-94199700D03*
X181407000Y-91499700D03*
D18*
X220536000Y-92367100D03*
X217836000Y-92367100D03*
D20*
X213307000Y-104345000D03*
X213307000Y-106145000D03*
X209807000Y-104345000D03*
X209807000Y-106145000D03*
X212807000Y-104345000D03*
X212307000Y-104345000D03*
X211807000Y-104345000D03*
X211307000Y-104345000D03*
X210807000Y-104345000D03*
X210307000Y-104345000D03*
X212807000Y-106145000D03*
X212307000Y-106145000D03*
X211807000Y-106145000D03*
X210807000Y-106145000D03*
X211307000Y-106145000D03*
X210307000Y-106145000D03*
D21*
X231305000Y-71488300D03*
X227978000Y-75869800D03*
D22*
X232232000Y-48590200D03*
X173965000Y-48539400D03*
X232181000Y-97536000D03*
M02*
