G04 #@! TF.GenerationSoftware,KiCad,Pcbnew,(5.1.6)-1*
G04 #@! TF.CreationDate,2020-09-28T13:24:55+09:00*
G04 #@! TF.ProjectId,mt_rpiprtcap,6d745f72-7069-4707-9274-6361702e6b69,rev?*
G04 #@! TF.SameCoordinates,Original*
G04 #@! TF.FileFunction,Copper,L1,Top*
G04 #@! TF.FilePolarity,Positive*
%FSLAX46Y46*%
G04 Gerber Fmt 4.6, Leading zero omitted, Abs format (unit mm)*
G04 Created by KiCad (PCBNEW (5.1.6)-1) date 2020-09-28 13:24:55*
%MOMM*%
%LPD*%
G01*
G04 APERTURE LIST*
G04 #@! TA.AperFunction,ComponentPad*
%ADD10C,1.524000*%
G04 #@! TD*
G04 #@! TA.AperFunction,SMDPad,CuDef*
%ADD11R,0.450000X1.475000*%
G04 #@! TD*
G04 #@! TA.AperFunction,ComponentPad*
%ADD12O,1.700000X1.700000*%
G04 #@! TD*
G04 #@! TA.AperFunction,ComponentPad*
%ADD13R,1.700000X1.700000*%
G04 #@! TD*
G04 #@! TA.AperFunction,SMDPad,CuDef*
%ADD14R,1.500000X1.250000*%
G04 #@! TD*
G04 #@! TA.AperFunction,SMDPad,CuDef*
%ADD15R,1.250000X1.500000*%
G04 #@! TD*
G04 #@! TA.AperFunction,SMDPad,CuDef*
%ADD16R,1.475000X0.450000*%
G04 #@! TD*
G04 #@! TA.AperFunction,SMDPad,CuDef*
%ADD17R,1.500000X1.300000*%
G04 #@! TD*
G04 #@! TA.AperFunction,SMDPad,CuDef*
%ADD18R,1.300000X1.500000*%
G04 #@! TD*
G04 #@! TA.AperFunction,SMDPad,CuDef*
%ADD19R,0.300000X0.800000*%
G04 #@! TD*
G04 #@! TA.AperFunction,SMDPad,CuDef*
%ADD20C,1.500000*%
G04 #@! TD*
G04 #@! TA.AperFunction,ViaPad*
%ADD21C,0.889000*%
G04 #@! TD*
G04 #@! TA.AperFunction,Conductor*
%ADD22C,0.406400*%
G04 #@! TD*
G04 #@! TA.AperFunction,Conductor*
%ADD23C,0.203200*%
G04 #@! TD*
G04 APERTURE END LIST*
D10*
X220420000Y-114212000D03*
X218261000Y-114212000D03*
X216102000Y-114212000D03*
X213943000Y-114212000D03*
X211784000Y-114212000D03*
X209625000Y-114212000D03*
X207466000Y-114212000D03*
X205307000Y-114212000D03*
X203148000Y-114212000D03*
X200989000Y-114212000D03*
X198830000Y-114212000D03*
X196671000Y-114212000D03*
X194512000Y-114212000D03*
X192353000Y-114212000D03*
X190194000Y-114212000D03*
X188035000Y-114212000D03*
X185876000Y-114212000D03*
X183717000Y-114212000D03*
X220420000Y-118502000D03*
X218261000Y-118502000D03*
X216102000Y-118502000D03*
X213943000Y-118502000D03*
X211784000Y-118502000D03*
X209625000Y-118502000D03*
X207466000Y-118502000D03*
X205307000Y-118502000D03*
X203148000Y-118502000D03*
X200989000Y-118502000D03*
X198830000Y-118502000D03*
X196671000Y-118502000D03*
X194512000Y-118502000D03*
X192353000Y-118502000D03*
X190194000Y-118502000D03*
X188035000Y-118502000D03*
X185876000Y-118502000D03*
X183717000Y-118502000D03*
D11*
X215804000Y-80589900D03*
X215154000Y-80589900D03*
X214504000Y-80589900D03*
X213854000Y-80589900D03*
X213204000Y-80589900D03*
X212554000Y-80589900D03*
X211904000Y-80589900D03*
X211254000Y-80589900D03*
X210604000Y-80589900D03*
X209954000Y-80589900D03*
X209304000Y-80589900D03*
X208654000Y-80589900D03*
X208654000Y-86465900D03*
X209304000Y-86465900D03*
X209954000Y-86465900D03*
X210604000Y-86465900D03*
X211254000Y-86465900D03*
X211904000Y-86465900D03*
X212554000Y-86465900D03*
X213204000Y-86465900D03*
X213854000Y-86465900D03*
X214504000Y-86465900D03*
X215154000Y-86465900D03*
X215804000Y-86465900D03*
D12*
X227203000Y-47345600D03*
X227203000Y-49885600D03*
X224663000Y-47345600D03*
X224663000Y-49885600D03*
X222123000Y-47345600D03*
X222123000Y-49885600D03*
X219583000Y-47345600D03*
X219583000Y-49885600D03*
X217043000Y-47345600D03*
X217043000Y-49885600D03*
X214503000Y-47345600D03*
X214503000Y-49885600D03*
X211963000Y-47345600D03*
X211963000Y-49885600D03*
X209423000Y-47345600D03*
X209423000Y-49885600D03*
X206883000Y-47345600D03*
X206883000Y-49885600D03*
X204343000Y-47345600D03*
X204343000Y-49885600D03*
X201803000Y-47345600D03*
X201803000Y-49885600D03*
X199263000Y-47345600D03*
X199263000Y-49885600D03*
X196723000Y-47345600D03*
X196723000Y-49885600D03*
X194183000Y-47345600D03*
X194183000Y-49885600D03*
X191643000Y-47345600D03*
X191643000Y-49885600D03*
X189103000Y-47345600D03*
X189103000Y-49885600D03*
X186563000Y-47345600D03*
X186563000Y-49885600D03*
X184023000Y-47345600D03*
X184023000Y-49885600D03*
X181483000Y-47345600D03*
X181483000Y-49885600D03*
X178943000Y-47345600D03*
D13*
X178943000Y-49885600D03*
D14*
X220345000Y-86690200D03*
X217845000Y-86690200D03*
X217845000Y-88722200D03*
X220345000Y-88722200D03*
X217895000Y-80543400D03*
X220395000Y-80543400D03*
D15*
X203365000Y-64751900D03*
X203365000Y-67251900D03*
X228016000Y-67310000D03*
X228016000Y-64810000D03*
X186398000Y-64853500D03*
X186398000Y-67353500D03*
D16*
X197367000Y-69411300D03*
X197367000Y-70061300D03*
X197367000Y-70711300D03*
X197367000Y-71361300D03*
X197367000Y-72011300D03*
X197367000Y-72661300D03*
X197367000Y-73311300D03*
X203243000Y-73311300D03*
X203243000Y-72661300D03*
X203243000Y-72011300D03*
X203243000Y-71361300D03*
X203243000Y-70711300D03*
X203243000Y-70061300D03*
X203243000Y-69411300D03*
X228007000Y-69424000D03*
X228007000Y-70074000D03*
X228007000Y-70724000D03*
X228007000Y-71374000D03*
X228007000Y-72024000D03*
X228007000Y-72674000D03*
X228007000Y-73324000D03*
X222131000Y-73324000D03*
X222131000Y-72674000D03*
X222131000Y-72024000D03*
X222131000Y-71374000D03*
X222131000Y-70724000D03*
X222131000Y-70074000D03*
X222131000Y-69424000D03*
X180361000Y-69360500D03*
X180361000Y-70010500D03*
X180361000Y-70660500D03*
X180361000Y-71310500D03*
X180361000Y-71960500D03*
X180361000Y-72610500D03*
X180361000Y-73260500D03*
X186237000Y-73260500D03*
X186237000Y-72610500D03*
X186237000Y-71960500D03*
X186237000Y-71310500D03*
X186237000Y-70660500D03*
X186237000Y-70010500D03*
X186237000Y-69360500D03*
D12*
X191186000Y-88188800D03*
D13*
X191186000Y-90728800D03*
D12*
X174980000Y-108191000D03*
D13*
X172440000Y-108191000D03*
X174942000Y-104102000D03*
D12*
X172402000Y-104102000D03*
X172377000Y-100012000D03*
D13*
X174917000Y-100012000D03*
X174942000Y-95885000D03*
D12*
X172402000Y-95885000D03*
X172402000Y-91821000D03*
D13*
X174942000Y-91821000D03*
D17*
X231044000Y-69100700D03*
X233744000Y-69100700D03*
X233773000Y-73825100D03*
X231073000Y-73825100D03*
D18*
X201752000Y-106172000D03*
X201752000Y-108872000D03*
X199301000Y-108864000D03*
X199301000Y-106164000D03*
X196926000Y-106164000D03*
X196926000Y-108864000D03*
X194526000Y-108859000D03*
X194526000Y-106159000D03*
X191211000Y-84467700D03*
X191211000Y-81767700D03*
X184328000Y-96563200D03*
X184328000Y-99263200D03*
X181407000Y-97917000D03*
X181407000Y-100617000D03*
X187185000Y-100609400D03*
X187185000Y-97909400D03*
X181407000Y-94199700D03*
X181407000Y-91499700D03*
D17*
X220536000Y-92367100D03*
X217836000Y-92367100D03*
D19*
X213307000Y-104345000D03*
X213307000Y-106145000D03*
X209807000Y-104345000D03*
X209807000Y-106145000D03*
X212807000Y-104345000D03*
X212307000Y-104345000D03*
X211807000Y-104345000D03*
X211307000Y-104345000D03*
X210807000Y-104345000D03*
X210307000Y-104345000D03*
X212807000Y-106145000D03*
X212307000Y-106145000D03*
X211807000Y-106145000D03*
X210807000Y-106145000D03*
X211307000Y-106145000D03*
X210307000Y-106145000D03*
D20*
X231305000Y-71488300D03*
X227978000Y-75869800D03*
D21*
X228016000Y-63169600D03*
X221640000Y-74510900D03*
X208839000Y-78879700D03*
X207488000Y-86465900D03*
X207463000Y-80589900D03*
X222237000Y-80543400D03*
X222263000Y-88722200D03*
X222263000Y-86690200D03*
X180361000Y-74404700D03*
X197367000Y-74418100D03*
X184665000Y-64853500D03*
X201645000Y-64751900D03*
X187185000Y-94869000D03*
X179752000Y-94199700D03*
X214973000Y-94830900D03*
X180213000Y-59855100D03*
X217895000Y-58840600D03*
X217895000Y-61063100D03*
X212928000Y-58801200D03*
X210782000Y-58800900D03*
X204939900Y-60947300D03*
X204025500Y-58813700D03*
X206497300Y-69095100D03*
X214504000Y-62698100D03*
X213748200Y-63596300D03*
X212297600Y-64468500D03*
X212183600Y-61442500D03*
X211784700Y-67267900D03*
X211104900Y-68543300D03*
X208036900Y-66389400D03*
X207747900Y-68491700D03*
X208115000Y-99961700D03*
X208915000Y-100711000D03*
X209868000Y-100025000D03*
X210896000Y-100711000D03*
X211836000Y-100089000D03*
X212788000Y-100800000D03*
X213639000Y-100101000D03*
X214643000Y-100711000D03*
X205851400Y-67796700D03*
X213611600Y-60726400D03*
X221039900Y-91052300D03*
X197020900Y-76792700D03*
X198755500Y-70141100D03*
X196299600Y-75411800D03*
X200356500Y-70884000D03*
X201629100Y-61286300D03*
X204630100Y-71923000D03*
X182203900Y-62310700D03*
X220324400Y-70624000D03*
X204787500Y-80975200D03*
X220950400Y-60718700D03*
X187644400Y-70810700D03*
X187772300Y-57943900D03*
X182317000Y-63451900D03*
X190849600Y-53295900D03*
X182982300Y-61409500D03*
X187691500Y-72610500D03*
D22*
X228016000Y-64810000D02*
X228016000Y-63169600D01*
X222131000Y-73324000D02*
X222131000Y-74020300D01*
X222131000Y-74020300D02*
X221640000Y-74510900D01*
X209304000Y-80589900D02*
X209304000Y-80293700D01*
X209304000Y-80293700D02*
X209296000Y-80285300D01*
X209296000Y-80285300D02*
X209296000Y-79336900D01*
X209296000Y-79336900D02*
X208839000Y-78879700D01*
X208654000Y-86465900D02*
X207488000Y-86465900D01*
X208654000Y-80589900D02*
X207463000Y-80589900D01*
X220395000Y-80543400D02*
X222237000Y-80543400D01*
X220345000Y-88722200D02*
X222263000Y-88722200D01*
X220345000Y-86690200D02*
X222263000Y-86690200D01*
X180361000Y-73260500D02*
X180361000Y-74404700D01*
X197367000Y-73311300D02*
X197367000Y-74418100D01*
X186398000Y-64853500D02*
X184665000Y-64853500D01*
X203365000Y-64751900D02*
X201645000Y-64751900D01*
X176060000Y-59855100D02*
X180213000Y-59855100D01*
X170510000Y-94145100D02*
X170510000Y-60706000D01*
X170510000Y-60706000D02*
X171361000Y-59855100D01*
X171361000Y-59855100D02*
X176060000Y-59855100D01*
X170510000Y-97929700D02*
X170510000Y-94145100D01*
X214973000Y-94830900D02*
X217030000Y-94830900D01*
X217030000Y-94830900D02*
X217836000Y-94025700D01*
X217836000Y-94025700D02*
X217836000Y-92367100D01*
X187185000Y-97909400D02*
X187185000Y-94869000D01*
X181407000Y-94199700D02*
X179752000Y-94199700D01*
X179752000Y-94199700D02*
X170565000Y-94199700D01*
X170565000Y-94199700D02*
X170510000Y-94145100D01*
X187178000Y-97917000D02*
X187185000Y-97909400D01*
X172440000Y-108191000D02*
X171717000Y-108191000D01*
X171717000Y-108191000D02*
X170510000Y-106985000D01*
X170510000Y-106985000D02*
X170510000Y-97929700D01*
X181407000Y-97917000D02*
X170523000Y-97917000D01*
X170523000Y-97917000D02*
X170510000Y-97929700D01*
X178943000Y-47345600D02*
X175993000Y-50295800D01*
X175993000Y-50295800D02*
X175993000Y-59787800D01*
X175993000Y-59787800D02*
X176060000Y-59855100D01*
X180213000Y-59855100D02*
X188163200Y-59855100D01*
X219012000Y-59855100D02*
X225895000Y-59855100D01*
X225895000Y-59855100D02*
X226847000Y-60807600D01*
X226847000Y-60807600D02*
X226847000Y-66141400D01*
X226847000Y-66141400D02*
X228016000Y-67310000D01*
X217845000Y-86690200D02*
X219052000Y-85483800D01*
X219052000Y-85483800D02*
X219052000Y-59895400D01*
X219052000Y-59895400D02*
X219012000Y-59855100D01*
X217836000Y-92367100D02*
X217836000Y-88732100D01*
X217836000Y-88732100D02*
X217845000Y-88722200D01*
X186398000Y-67353500D02*
X186398000Y-69199700D01*
X186398000Y-69199700D02*
X186237000Y-69360500D01*
X215804000Y-86465900D02*
X217620000Y-86465900D01*
X217620000Y-86465900D02*
X217845000Y-86690200D01*
X228007000Y-69424000D02*
X229151000Y-69424000D01*
X229151000Y-69424000D02*
X229151000Y-67413500D01*
X229151000Y-67413500D02*
X229048000Y-67310000D01*
X229048000Y-67310000D02*
X228016000Y-67310000D01*
X217845000Y-86690200D02*
X217845000Y-88722200D01*
X217845000Y-88722200D02*
X215938000Y-88722200D01*
X215938000Y-88722200D02*
X215154000Y-87938800D01*
X215154000Y-87938800D02*
X215154000Y-86465900D01*
X186398000Y-67353500D02*
X186557600Y-67353500D01*
X186557600Y-67353500D02*
X188163200Y-65747900D01*
X188163200Y-65747900D02*
X188163200Y-59855100D01*
X188163200Y-59855100D02*
X219012000Y-59855100D01*
X210769200Y-58813700D02*
X210782000Y-58800900D01*
X210769200Y-58813700D02*
X212940500Y-58813700D01*
X204398400Y-58813700D02*
X210769200Y-58813700D01*
X217868100Y-58813700D02*
X217895000Y-58840600D01*
X217868100Y-58813700D02*
X233210000Y-58813700D01*
X233210000Y-58813700D02*
X233744000Y-59347600D01*
X233744000Y-59347600D02*
X233744000Y-69100700D01*
X212940500Y-58813700D02*
X217868100Y-58813700D01*
X204398400Y-58813700D02*
X204396000Y-58816100D01*
X212940500Y-58813700D02*
X212928000Y-58801200D01*
X199263000Y-49885600D02*
X199263000Y-58547000D01*
X199263000Y-58547000D02*
X199530000Y-58813700D01*
X217895000Y-80543400D02*
X217895000Y-61063100D01*
X178943000Y-49885600D02*
X178943000Y-58445400D01*
X178943000Y-58445400D02*
X179311000Y-58813700D01*
X179311000Y-58813700D02*
X199530000Y-58813700D01*
X233773000Y-73825100D02*
X233773000Y-72768400D01*
X233773000Y-72768400D02*
X233744000Y-72739400D01*
X233744000Y-72739400D02*
X233744000Y-69100700D01*
X217895000Y-80543400D02*
X215851000Y-80543400D01*
X215851000Y-80543400D02*
X215804000Y-80589900D01*
X203365000Y-67251900D02*
X203365000Y-69288600D01*
X203365000Y-69288600D02*
X203243000Y-69411300D01*
X203365000Y-67251900D02*
X203423200Y-67251900D01*
X203423200Y-67251900D02*
X204939900Y-65735200D01*
X204939900Y-65735200D02*
X204939900Y-60947300D01*
X199530000Y-58813700D02*
X204025500Y-58813700D01*
X204025500Y-58813700D02*
X204398400Y-58813700D01*
D23*
X215154000Y-81632500D02*
X207435900Y-81632500D01*
X207435900Y-81632500D02*
X206497300Y-80693900D01*
X206497300Y-80693900D02*
X206497300Y-69095100D01*
X215154000Y-80589900D02*
X215154000Y-81632500D01*
X214504000Y-80589900D02*
X214504000Y-62698100D01*
X213748200Y-63596300D02*
X213854000Y-63702100D01*
X213854000Y-63702100D02*
X213854000Y-80589900D01*
X212297600Y-64468500D02*
X213204000Y-65374900D01*
X213204000Y-65374900D02*
X213204000Y-80589900D01*
X212183600Y-61442500D02*
X211548000Y-62078100D01*
X211548000Y-62078100D02*
X211548000Y-65970900D01*
X211548000Y-65970900D02*
X212554000Y-66976900D01*
X212554000Y-66976900D02*
X212554000Y-80589900D01*
X211784700Y-67267900D02*
X211904000Y-67387200D01*
X211904000Y-67387200D02*
X211904000Y-80589900D01*
X211254000Y-79547300D02*
X211104900Y-79398200D01*
X211104900Y-79398200D02*
X211104900Y-68543300D01*
X211254000Y-80589900D02*
X211254000Y-79547300D01*
X210604000Y-80589900D02*
X210604000Y-69621700D01*
X210604000Y-69621700D02*
X208036900Y-67054600D01*
X208036900Y-67054600D02*
X208036900Y-66389400D01*
X209954000Y-80589900D02*
X209954000Y-70697800D01*
X209954000Y-70697800D02*
X207747900Y-68491700D01*
X209807000Y-104345000D02*
X209807000Y-102974000D01*
X209807000Y-102974000D02*
X208115000Y-101282000D01*
X208115000Y-101282000D02*
X208115000Y-99961700D01*
X208115000Y-99415600D02*
X208115000Y-99961700D01*
X209304000Y-86465900D02*
X209304000Y-98226848D01*
X209304000Y-98226848D02*
X209200924Y-98329924D01*
X209200924Y-98329924D02*
X208115000Y-99415600D01*
X210307000Y-104345000D02*
X210307000Y-102103000D01*
X210307000Y-102103000D02*
X208915000Y-100711000D01*
X209954000Y-86465900D02*
X209954000Y-98515900D01*
X209954000Y-98515900D02*
X208915000Y-99555300D01*
X208915000Y-99555300D02*
X208915000Y-100711000D01*
X210807000Y-104345000D02*
X210807000Y-102018000D01*
X210807000Y-102018000D02*
X209868000Y-101079000D01*
X209868000Y-101079000D02*
X209868000Y-100025000D01*
X210604000Y-86465900D02*
X210604000Y-99275600D01*
X210604000Y-99275600D02*
X209868000Y-100012000D01*
X209868000Y-100012000D02*
X209868000Y-100025000D01*
X211307000Y-104345000D02*
X211307000Y-101121000D01*
X211307000Y-101121000D02*
X210896000Y-100711000D01*
X211254000Y-86465900D02*
X211254000Y-99561300D01*
X211254000Y-99561300D02*
X210896000Y-99919500D01*
X210896000Y-99919500D02*
X210896000Y-100711000D01*
X211807000Y-104345000D02*
X211807000Y-100118000D01*
X211807000Y-100118000D02*
X211836000Y-100089000D01*
X211904000Y-86465900D02*
X211904000Y-86580800D01*
X211904000Y-86580800D02*
X211836000Y-86649200D01*
X211836000Y-86649200D02*
X211836000Y-100089000D01*
X212307000Y-104345000D02*
X212307000Y-101282000D01*
X212307000Y-101282000D02*
X212788000Y-100800000D01*
X212554000Y-86465900D02*
X212554000Y-87406600D01*
X212554000Y-87406600D02*
X212547000Y-87413800D01*
X212547000Y-87413800D02*
X212547000Y-99275900D01*
X212547000Y-99275900D02*
X212788000Y-99517200D01*
X212788000Y-99517200D02*
X212788000Y-100800000D01*
X212807000Y-104345000D02*
X212807000Y-102204000D01*
X212807000Y-102204000D02*
X213639000Y-101371000D01*
X213639000Y-101371000D02*
X213639000Y-100101000D01*
X213204000Y-86465900D02*
X213204000Y-98879000D01*
X213204000Y-98879000D02*
X213639000Y-99314000D01*
X213639000Y-99314000D02*
X213639000Y-100101000D01*
X213307000Y-104345000D02*
X213307000Y-102542000D01*
X213307000Y-102542000D02*
X214643000Y-101206000D01*
X214643000Y-101206000D02*
X214643000Y-100711000D01*
X213854000Y-86465900D02*
X213854000Y-98500300D01*
X213854000Y-98500300D02*
X214643000Y-99288600D01*
X214643000Y-99288600D02*
X214643000Y-100711000D01*
X205852400Y-80624200D02*
X205852400Y-70910300D01*
X205852400Y-70910300D02*
X205683900Y-70741800D01*
X205683900Y-70741800D02*
X205683900Y-67964200D01*
X205683900Y-67964200D02*
X205851400Y-67796700D01*
X213890300Y-84756700D02*
X209984900Y-84756700D01*
X214504000Y-85370400D02*
X213890300Y-84756700D01*
X214504000Y-86465900D02*
X214504000Y-85370400D01*
X209984900Y-84756700D02*
X205852400Y-80624200D01*
X199584900Y-70061300D02*
X199584900Y-69906000D01*
X199584900Y-69906000D02*
X199020100Y-69341200D01*
X199020100Y-69341200D02*
X198479700Y-69341200D01*
X198479700Y-69341200D02*
X198409600Y-69411300D01*
X197367000Y-71361300D02*
X198595500Y-71361300D01*
X198595500Y-71361300D02*
X199584900Y-70371900D01*
X199584900Y-70371900D02*
X199584900Y-70061300D01*
X202200400Y-70061300D02*
X199584900Y-70061300D01*
X197367000Y-69411300D02*
X198409600Y-69411300D01*
X202200400Y-70061300D02*
X202200400Y-72011300D01*
X203243000Y-72011300D02*
X202200400Y-72011300D01*
X203243000Y-70061300D02*
X202200400Y-70061300D01*
X203764300Y-70061300D02*
X203243000Y-70061300D01*
X204285600Y-70061300D02*
X204285600Y-68280400D01*
X204285600Y-68280400D02*
X211873100Y-60692900D01*
X211873100Y-60692900D02*
X213578100Y-60692900D01*
X213578100Y-60692900D02*
X213611600Y-60726400D01*
X203764300Y-70061300D02*
X204285600Y-70061300D01*
X196324400Y-70061300D02*
X195550000Y-70835700D01*
X195550000Y-70835700D02*
X195550000Y-75769000D01*
X195550000Y-75769000D02*
X196573700Y-76792700D01*
X196573700Y-76792700D02*
X197020900Y-76792700D01*
X220536000Y-91412000D02*
X220680200Y-91412000D01*
X220680200Y-91412000D02*
X221039900Y-91052300D01*
X197367000Y-70061300D02*
X196324400Y-70061300D01*
X220536000Y-92367100D02*
X220536000Y-91412000D01*
X220420000Y-114212000D02*
X220420000Y-93438200D01*
X220420000Y-93438200D02*
X220536000Y-93322200D01*
X220536000Y-92367100D02*
X220536000Y-93322200D01*
X198409600Y-70711300D02*
X198409600Y-70487000D01*
X198409600Y-70487000D02*
X198755500Y-70141100D01*
X197367000Y-70711300D02*
X198409600Y-70711300D01*
X197367000Y-72011300D02*
X196324400Y-72011300D01*
X196299600Y-75411800D02*
X196299600Y-72036100D01*
X196299600Y-72036100D02*
X196324400Y-72011300D01*
X181407000Y-91499700D02*
X182362100Y-91499700D01*
X182362100Y-91499700D02*
X182362100Y-96429500D01*
X182362100Y-96429500D02*
X183551000Y-97618400D01*
X183551000Y-97618400D02*
X184569000Y-97618400D01*
X184569000Y-97618400D02*
X185915200Y-98964600D01*
X185915200Y-98964600D02*
X187444900Y-98964600D01*
X187444900Y-98964600D02*
X192353000Y-103872700D01*
X192353000Y-103872700D02*
X192353000Y-114212000D01*
X174942000Y-91821000D02*
X181086000Y-91821000D01*
X181086000Y-91821000D02*
X181407000Y-91499700D01*
X197367000Y-72661300D02*
X198579200Y-72661300D01*
X198579200Y-72661300D02*
X200356500Y-70884000D01*
X203243000Y-73311300D02*
X202200400Y-73311300D01*
X202200400Y-73311300D02*
X197966500Y-77545200D01*
X197966500Y-77545200D02*
X196686800Y-77545200D01*
X196686800Y-77545200D02*
X195133000Y-75991400D01*
X195133000Y-75991400D02*
X195133000Y-67782400D01*
X195133000Y-67782400D02*
X201629100Y-61286300D01*
X203243000Y-72661300D02*
X204285600Y-72661300D01*
X183717000Y-118516600D02*
X186338500Y-115895100D01*
X186338500Y-115895100D02*
X194349800Y-115895100D01*
X194349800Y-115895100D02*
X195591500Y-114653400D01*
X195591500Y-114653400D02*
X195591500Y-108279500D01*
X195591500Y-108279500D02*
X196469000Y-107402000D01*
X196469000Y-107402000D02*
X197528200Y-107402000D01*
X197528200Y-107402000D02*
X197881100Y-107049100D01*
X197881100Y-107049100D02*
X197881100Y-81480600D01*
X197881100Y-81480600D02*
X204285600Y-75076100D01*
X204285600Y-75076100D02*
X204285600Y-72661300D01*
X183717000Y-118516600D02*
X183717000Y-119851000D01*
X183717000Y-119851000D02*
X183147000Y-120421000D01*
X183147000Y-120421000D02*
X182334000Y-120421000D01*
X182334000Y-120421000D02*
X181546000Y-119634000D01*
X181546000Y-119634000D02*
X181546000Y-113678000D01*
X181546000Y-113678000D02*
X187185000Y-108039000D01*
X187185000Y-108039000D02*
X187185000Y-100609400D01*
X183717000Y-118502000D02*
X183717000Y-118516600D01*
X187185000Y-100609400D02*
X187185000Y-100609000D01*
X204285600Y-71361300D02*
X204285600Y-71578500D01*
X204285600Y-71578500D02*
X204630100Y-71923000D01*
X203243000Y-71361300D02*
X204285600Y-71361300D01*
X203243000Y-70711300D02*
X204518900Y-70711300D01*
X204518900Y-70711300D02*
X205383900Y-71576300D01*
X205383900Y-71576300D02*
X205383900Y-77545900D01*
X205383900Y-77545900D02*
X198345800Y-84584000D01*
X198345800Y-84584000D02*
X198345800Y-111165900D01*
X198345800Y-111165900D02*
X197750500Y-111761200D01*
X197750500Y-111761200D02*
X197750500Y-115263500D01*
X197750500Y-115263500D02*
X194512000Y-118502000D01*
X194512000Y-118502000D02*
X194512000Y-120080000D01*
X194512000Y-120080000D02*
X192837000Y-121755000D01*
X192837000Y-121755000D02*
X181470000Y-121755000D01*
X181470000Y-121755000D02*
X180099000Y-120383000D01*
X180099000Y-120383000D02*
X180099000Y-112751000D01*
X180099000Y-112751000D02*
X181407000Y-111442000D01*
X181407000Y-111442000D02*
X181407000Y-100617000D01*
X187279600Y-71960500D02*
X187628400Y-71611700D01*
X187628400Y-71611700D02*
X187914900Y-71611700D01*
X187914900Y-71611700D02*
X188448900Y-71077700D01*
X188448900Y-71077700D02*
X188448900Y-70541600D01*
X188448900Y-70541600D02*
X187917800Y-70010500D01*
X187917800Y-70010500D02*
X186237000Y-70010500D01*
X182203900Y-62702300D02*
X182006500Y-62702300D01*
X182006500Y-62702300D02*
X180996700Y-63712100D01*
X180996700Y-63712100D02*
X180996700Y-69360500D01*
X185194400Y-71960500D02*
X183148200Y-69914300D01*
X183148200Y-69914300D02*
X183148200Y-63219700D01*
X183148200Y-63219700D02*
X182630800Y-62702300D01*
X182630800Y-62702300D02*
X182203900Y-62702300D01*
X182203900Y-62310700D02*
X182203900Y-62702300D01*
X186563000Y-49885600D02*
X187718100Y-49885600D01*
X228007000Y-70074000D02*
X229289900Y-70074000D01*
X229289900Y-70074000D02*
X229659400Y-69704500D01*
X229659400Y-69704500D02*
X229659400Y-68632600D01*
X229659400Y-68632600D02*
X230146500Y-68145500D01*
X230146500Y-68145500D02*
X231996100Y-68145500D01*
X231996100Y-68145500D02*
X232360200Y-68509600D01*
X232360200Y-68509600D02*
X232360200Y-74303500D01*
X232360200Y-74303500D02*
X232837000Y-74780300D01*
X232837000Y-74780300D02*
X234711500Y-74780300D01*
X234711500Y-74780300D02*
X234828200Y-74663600D01*
X234828200Y-74663600D02*
X234828200Y-59652200D01*
X234828200Y-59652200D02*
X228762300Y-53586300D01*
X228762300Y-53586300D02*
X221608600Y-53586300D01*
X221608600Y-53586300D02*
X218313000Y-50290700D01*
X218313000Y-50290700D02*
X218313000Y-49497300D01*
X218313000Y-49497300D02*
X217519700Y-48704000D01*
X217519700Y-48704000D02*
X198955000Y-48704000D01*
X198955000Y-48704000D02*
X197993000Y-47742000D01*
X197993000Y-47742000D02*
X197993000Y-46966100D01*
X197993000Y-46966100D02*
X197132800Y-46105900D01*
X197132800Y-46105900D02*
X191218200Y-46105900D01*
X191218200Y-46105900D02*
X190487800Y-46836300D01*
X190487800Y-46836300D02*
X190487800Y-47627200D01*
X190487800Y-47627200D02*
X189499400Y-48615600D01*
X189499400Y-48615600D02*
X188718800Y-48615600D01*
X188718800Y-48615600D02*
X187718100Y-49616300D01*
X187718100Y-49616300D02*
X187718100Y-49885600D01*
X227587400Y-70074000D02*
X228007000Y-70074000D01*
X186237000Y-71960500D02*
X187279600Y-71960500D01*
X227587400Y-70074000D02*
X226964400Y-70074000D01*
X226964400Y-70399000D02*
X226964400Y-70074000D01*
X226964400Y-72024000D02*
X226964400Y-70399000D01*
X224148600Y-70399000D02*
X226964400Y-70399000D01*
X228007000Y-72024000D02*
X226964400Y-72024000D01*
X223173600Y-71374000D02*
X224148600Y-70399000D01*
X224148600Y-70399000D02*
X223173600Y-69424000D01*
X222131000Y-69424000D02*
X223173600Y-69424000D01*
X222131000Y-71374000D02*
X223173600Y-71374000D01*
X186237000Y-71960500D02*
X185194400Y-71960500D01*
X180996700Y-69360500D02*
X181403600Y-69360500D01*
X180361000Y-69360500D02*
X180996700Y-69360500D01*
X181403600Y-71310500D02*
X181403600Y-69360500D01*
X180361000Y-71310500D02*
X181403600Y-71310500D01*
X231044000Y-69100700D02*
X231044000Y-70055800D01*
X231044000Y-70055800D02*
X230376000Y-70724000D01*
X230376000Y-70724000D02*
X228007000Y-70724000D01*
X231305000Y-71488300D02*
X229164000Y-71488300D01*
X229164000Y-71488300D02*
X229050000Y-71374000D01*
X229050000Y-71374000D02*
X228007000Y-71374000D01*
X231073000Y-73825100D02*
X231073000Y-72870000D01*
X231073000Y-72870000D02*
X230877000Y-72674000D01*
X230877000Y-72674000D02*
X228007000Y-72674000D01*
X227978000Y-75869800D02*
X226964000Y-74856200D01*
X226964000Y-74856200D02*
X226964000Y-73324000D01*
X226964000Y-73324000D02*
X228007000Y-73324000D01*
X199301000Y-106164000D02*
X199301000Y-86448500D01*
X199301000Y-86448500D02*
X200753600Y-84995900D01*
X222131000Y-70724000D02*
X221088400Y-70724000D01*
X220324400Y-70624000D02*
X220988400Y-70624000D01*
X220988400Y-70624000D02*
X221088400Y-70724000D01*
X200766800Y-84995900D02*
X204787500Y-80975200D01*
X200753600Y-84995900D02*
X200766800Y-84995900D01*
X221088400Y-70074000D02*
X221088400Y-60856700D01*
X221088400Y-60856700D02*
X220950400Y-60718700D01*
X222131000Y-70074000D02*
X221088400Y-70074000D01*
X222131000Y-72674000D02*
X223173600Y-72674000D01*
X201752000Y-106172000D02*
X202707100Y-106172000D01*
X202707100Y-106172000D02*
X203439300Y-105439800D01*
X203439300Y-105439800D02*
X213193700Y-105439800D01*
X213193700Y-105439800D02*
X219352800Y-99280700D01*
X219352800Y-99280700D02*
X219352800Y-91658800D01*
X219352800Y-91658800D02*
X221126700Y-89884900D01*
X221126700Y-89884900D02*
X222206200Y-89884900D01*
X222206200Y-89884900D02*
X223173600Y-88917500D01*
X223173600Y-88917500D02*
X223173600Y-72674000D01*
X223278100Y-49885600D02*
X223278100Y-50154900D01*
X223278100Y-50154900D02*
X224689500Y-51566300D01*
X224689500Y-51566300D02*
X227317600Y-51566300D01*
X227317600Y-51566300D02*
X235242100Y-59490800D01*
X235242100Y-59490800D02*
X235242100Y-74825000D01*
X235242100Y-74825000D02*
X233127800Y-76939300D01*
X233127800Y-76939300D02*
X227487600Y-76939300D01*
X227487600Y-76939300D02*
X223847600Y-73299300D01*
X223847600Y-73299300D02*
X223847600Y-72698000D01*
X223847600Y-72698000D02*
X223173600Y-72024000D01*
X222123000Y-49885600D02*
X223278100Y-49885600D01*
X222131000Y-72024000D02*
X223173600Y-72024000D01*
X186237000Y-70660500D02*
X187494200Y-70660500D01*
X187494200Y-70660500D02*
X187644400Y-70810700D01*
X185194400Y-71310500D02*
X183901600Y-70017700D01*
X183901600Y-70017700D02*
X183901600Y-61239800D01*
X183901600Y-61239800D02*
X183296600Y-60634800D01*
X183296600Y-60634800D02*
X182244500Y-60634800D01*
X182244500Y-60634800D02*
X178860700Y-64018600D01*
X178860700Y-64018600D02*
X178860700Y-85906900D01*
X178860700Y-85906900D02*
X184328000Y-91374200D01*
X184328000Y-91374200D02*
X184328000Y-96563200D01*
X186237000Y-71310500D02*
X185194400Y-71310500D01*
X180361000Y-71960500D02*
X181403600Y-71960500D01*
X191643000Y-48500700D02*
X191373700Y-48500700D01*
X191373700Y-48500700D02*
X190258200Y-49616200D01*
X190258200Y-49616200D02*
X190258200Y-51677600D01*
X190258200Y-51677600D02*
X187772300Y-54163500D01*
X187772300Y-54163500D02*
X187772300Y-57943900D01*
X191643000Y-47345600D02*
X191643000Y-48500700D01*
X181403600Y-71960500D02*
X182317000Y-71047100D01*
X182317000Y-71047100D02*
X182317000Y-63451900D01*
X196926000Y-106164000D02*
X196926000Y-99407600D01*
X196926000Y-99407600D02*
X181403600Y-83885200D01*
X181403600Y-83885200D02*
X181403600Y-72610500D01*
X180361000Y-72610500D02*
X181403600Y-72610500D01*
X180361000Y-70660500D02*
X179318400Y-70660500D01*
X194526000Y-106159000D02*
X194526000Y-100996900D01*
X194526000Y-100996900D02*
X179318400Y-85789300D01*
X179318400Y-85789300D02*
X179318400Y-70660500D01*
X182982300Y-61409500D02*
X182045000Y-61409500D01*
X182045000Y-61409500D02*
X179318400Y-64136100D01*
X179318400Y-64136100D02*
X179318400Y-70010500D01*
X190849600Y-53295900D02*
X193104800Y-51040700D01*
X193104800Y-51040700D02*
X194183000Y-51040700D01*
X180361000Y-70010500D02*
X179318400Y-70010500D01*
X194183000Y-49885600D02*
X194183000Y-51040700D01*
X186237000Y-73260500D02*
X187279600Y-73260500D01*
X191211000Y-81767700D02*
X190255900Y-81767700D01*
X190255900Y-81767700D02*
X190255900Y-76236800D01*
X190255900Y-76236800D02*
X187279600Y-73260500D01*
X186237000Y-72610500D02*
X187691500Y-72610500D01*
X191211000Y-84467700D02*
X191211000Y-85522800D01*
X191211000Y-85522800D02*
X191186000Y-85547800D01*
X191186000Y-85547800D02*
X191186000Y-88188800D01*
X213307000Y-106145000D02*
X213307000Y-106850100D01*
X213307000Y-106850100D02*
X218261000Y-111804100D01*
X218261000Y-111804100D02*
X218261000Y-114212000D01*
X212807000Y-106145000D02*
X212807000Y-110917000D01*
X212807000Y-110917000D02*
X216102000Y-114212000D01*
X212307000Y-106145000D02*
X212307000Y-112576000D01*
X212307000Y-112576000D02*
X213943000Y-114212000D01*
X211807000Y-106145000D02*
X211807000Y-114189000D01*
X211807000Y-114189000D02*
X211784000Y-114212000D01*
X211307000Y-106145000D02*
X211307000Y-112530000D01*
X211307000Y-112530000D02*
X209625000Y-114212000D01*
X210807000Y-106145000D02*
X210807000Y-110871000D01*
X210807000Y-110871000D02*
X207466000Y-114212000D01*
X210307000Y-106145000D02*
X210307000Y-109212000D01*
X210307000Y-109212000D02*
X205307000Y-114212000D01*
X209807000Y-106145000D02*
X209807000Y-106850100D01*
X209807000Y-106850100D02*
X203148000Y-113509100D01*
X203148000Y-113509100D02*
X203148000Y-114212000D01*
X201752000Y-108872000D02*
X201752000Y-113449000D01*
X201752000Y-113449000D02*
X200989000Y-114212000D01*
X199301000Y-108864000D02*
X199301000Y-113741000D01*
X199301000Y-113741000D02*
X198830000Y-114212000D01*
X196926000Y-108864000D02*
X196926000Y-109919100D01*
X196926000Y-109919100D02*
X196671000Y-110174100D01*
X196671000Y-110174100D02*
X196671000Y-114212000D01*
X194526000Y-108859000D02*
X194526000Y-109914100D01*
X194526000Y-109914100D02*
X194512000Y-109928100D01*
X194512000Y-109928100D02*
X194512000Y-114212000D01*
X192353000Y-118502000D02*
X192353000Y-119800000D01*
X192353000Y-119800000D02*
X191084000Y-121069000D01*
X191084000Y-121069000D02*
X181928000Y-121069000D01*
X181928000Y-121069000D02*
X180835000Y-119977000D01*
X180835000Y-119977000D02*
X180835000Y-113284000D01*
X180835000Y-113284000D02*
X184328000Y-109792000D01*
X184328000Y-109792000D02*
X184328000Y-99263200D01*
M02*
