G04 #@! TF.GenerationSoftware,KiCad,Pcbnew,(5.1.6)-1*
G04 #@! TF.CreationDate,2020-09-28T13:24:55+09:00*
G04 #@! TF.ProjectId,mt_rpiprtcap,6d745f72-7069-4707-9274-6361702e6b69,rev?*
G04 #@! TF.SameCoordinates,Original*
G04 #@! TF.FileFunction,Legend,Top*
G04 #@! TF.FilePolarity,Positive*
%FSLAX46Y46*%
G04 Gerber Fmt 4.6, Leading zero omitted, Abs format (unit mm)*
G04 Created by KiCad (PCBNEW (5.1.6)-1) date 2020-09-28 13:24:55*
%MOMM*%
%LPD*%
G01*
G04 APERTURE LIST*
%ADD10C,0.200000*%
%ADD11C,0.120000*%
%ADD12C,0.150000*%
%ADD13C,0.254000*%
G04 APERTURE END LIST*
D10*
X216129000Y-81677900D02*
X216129000Y-85377900D01*
X216129000Y-85377900D02*
X208329000Y-85377900D01*
X208329000Y-85377900D02*
X208329000Y-81677900D01*
X208329000Y-81677900D02*
X216129000Y-81677900D01*
X216379000Y-79852900D02*
X216379000Y-81327900D01*
D11*
X177613000Y-51215600D02*
X177613000Y-49885600D01*
X178943000Y-51215600D02*
X177613000Y-51215600D01*
X177613000Y-48615600D02*
X177613000Y-46015600D01*
X180213000Y-48615600D02*
X177613000Y-48615600D01*
X180213000Y-51215600D02*
X180213000Y-48615600D01*
X177613000Y-46015600D02*
X228533000Y-46015600D01*
X180213000Y-51215600D02*
X228533000Y-51215600D01*
X228533000Y-51215600D02*
X228533000Y-46015600D01*
X218595000Y-87540200D02*
X219595000Y-87540200D01*
X219595000Y-85840200D02*
X218595000Y-85840200D01*
X219595000Y-87872200D02*
X218595000Y-87872200D01*
X218595000Y-89572200D02*
X219595000Y-89572200D01*
X219645000Y-79693400D02*
X218645000Y-79693400D01*
X218645000Y-81393400D02*
X219645000Y-81393400D01*
X204215000Y-66501900D02*
X204215000Y-65501900D01*
X202515000Y-65501900D02*
X202515000Y-66501900D01*
X227166000Y-65560000D02*
X227166000Y-66560000D01*
X228866000Y-66560000D02*
X228866000Y-65560000D01*
X187248000Y-66603500D02*
X187248000Y-65603500D01*
X185548000Y-65603500D02*
X185548000Y-66603500D01*
D10*
X198455000Y-68861300D02*
X202155000Y-68861300D01*
X202155000Y-68861300D02*
X202155000Y-73861300D01*
X202155000Y-73861300D02*
X198455000Y-73861300D01*
X198455000Y-73861300D02*
X198455000Y-68861300D01*
X196630000Y-68836300D02*
X198105000Y-68836300D01*
X221394000Y-68849000D02*
X222869000Y-68849000D01*
X223219000Y-73874000D02*
X223219000Y-68874000D01*
X226919000Y-73874000D02*
X223219000Y-73874000D01*
X226919000Y-68874000D02*
X226919000Y-73874000D01*
X223219000Y-68874000D02*
X226919000Y-68874000D01*
X181449000Y-68810500D02*
X185149000Y-68810500D01*
X185149000Y-68810500D02*
X185149000Y-73810500D01*
X185149000Y-73810500D02*
X181449000Y-73810500D01*
X181449000Y-73810500D02*
X181449000Y-68810500D01*
X179624000Y-68785500D02*
X181099000Y-68785500D01*
D11*
X189856000Y-92058800D02*
X189856000Y-90728800D01*
X191186000Y-92058800D02*
X189856000Y-92058800D01*
X189856000Y-89458800D02*
X189856000Y-86858800D01*
X192456000Y-89458800D02*
X189856000Y-89458800D01*
X192456000Y-92058800D02*
X192456000Y-89458800D01*
X189856000Y-86858800D02*
X192516000Y-86858800D01*
X192456000Y-92058800D02*
X192516000Y-92058800D01*
X192516000Y-92058800D02*
X192516000Y-86858800D01*
X171110000Y-106861000D02*
X172440000Y-106861000D01*
X171110000Y-108191000D02*
X171110000Y-106861000D01*
X173710000Y-106861000D02*
X176310000Y-106861000D01*
X173710000Y-109461000D02*
X173710000Y-106861000D01*
X171110000Y-109461000D02*
X173710000Y-109461000D01*
X176310000Y-106861000D02*
X176310000Y-109521000D01*
X171110000Y-109461000D02*
X171110000Y-109521000D01*
X171110000Y-109521000D02*
X176310000Y-109521000D01*
X176272000Y-102772000D02*
X171072000Y-102772000D01*
X176272000Y-102832000D02*
X176272000Y-102772000D01*
X171072000Y-105432000D02*
X171072000Y-102772000D01*
X176272000Y-102832000D02*
X173672000Y-102832000D01*
X173672000Y-102832000D02*
X173672000Y-105432000D01*
X173672000Y-105432000D02*
X171072000Y-105432000D01*
X176272000Y-104102000D02*
X176272000Y-105432000D01*
X176272000Y-105432000D02*
X174942000Y-105432000D01*
X176247000Y-101342000D02*
X174917000Y-101342000D01*
X176247000Y-100012000D02*
X176247000Y-101342000D01*
X173647000Y-101342000D02*
X171047000Y-101342000D01*
X173647000Y-98742000D02*
X173647000Y-101342000D01*
X176247000Y-98742000D02*
X173647000Y-98742000D01*
X171047000Y-101342000D02*
X171047000Y-98682000D01*
X176247000Y-98742000D02*
X176247000Y-98682000D01*
X176247000Y-98682000D02*
X171047000Y-98682000D01*
X176272000Y-94555000D02*
X171072000Y-94555000D01*
X176272000Y-94615000D02*
X176272000Y-94555000D01*
X171072000Y-97215000D02*
X171072000Y-94555000D01*
X176272000Y-94615000D02*
X173672000Y-94615000D01*
X173672000Y-94615000D02*
X173672000Y-97215000D01*
X173672000Y-97215000D02*
X171072000Y-97215000D01*
X176272000Y-95885000D02*
X176272000Y-97215000D01*
X176272000Y-97215000D02*
X174942000Y-97215000D01*
X176272000Y-93151000D02*
X174942000Y-93151000D01*
X176272000Y-91821000D02*
X176272000Y-93151000D01*
X173672000Y-93151000D02*
X171072000Y-93151000D01*
X173672000Y-90551000D02*
X173672000Y-93151000D01*
X176272000Y-90551000D02*
X173672000Y-90551000D01*
X171072000Y-93151000D02*
X171072000Y-90491000D01*
X176272000Y-90551000D02*
X176272000Y-90491000D01*
X176272000Y-90491000D02*
X171072000Y-90491000D01*
X232994000Y-69980700D02*
X231794000Y-69980700D01*
X231794000Y-68220700D02*
X232994000Y-68220700D01*
X231823000Y-72945100D02*
X233023000Y-72945100D01*
X233023000Y-74705100D02*
X231823000Y-74705100D01*
X200872000Y-108122000D02*
X200872000Y-106922000D01*
X202632000Y-106922000D02*
X202632000Y-108122000D01*
X200181000Y-106914000D02*
X200181000Y-108114000D01*
X198421000Y-108114000D02*
X198421000Y-106914000D01*
X196046000Y-108114000D02*
X196046000Y-106914000D01*
X197806000Y-106914000D02*
X197806000Y-108114000D01*
X195406000Y-106909000D02*
X195406000Y-108109000D01*
X193646000Y-108109000D02*
X193646000Y-106909000D01*
X192091000Y-82517700D02*
X192091000Y-83717700D01*
X190331000Y-83717700D02*
X190331000Y-82517700D01*
X183448000Y-98513200D02*
X183448000Y-97313200D01*
X185208000Y-97313200D02*
X185208000Y-98513200D01*
X180527000Y-99867000D02*
X180527000Y-98667000D01*
X182287000Y-98667000D02*
X182287000Y-99867000D01*
X188065000Y-98659400D02*
X188065000Y-99859400D01*
X186305000Y-99859400D02*
X186305000Y-98659400D01*
X182287000Y-92249700D02*
X182287000Y-93449700D01*
X180527000Y-93449700D02*
X180527000Y-92249700D01*
X218586000Y-91487100D02*
X219786000Y-91487100D01*
X219786000Y-93247100D02*
X218586000Y-93247100D01*
X209437000Y-105745000D02*
X209437000Y-104745000D01*
X213677000Y-105745000D02*
X213677000Y-104745000D01*
D12*
X223896666Y-111124380D02*
X223896666Y-111838666D01*
X223849047Y-111981523D01*
X223753809Y-112076761D01*
X223610952Y-112124380D01*
X223515714Y-112124380D01*
X224801428Y-111457714D02*
X224801428Y-112124380D01*
X224563333Y-111076761D02*
X224325238Y-111791047D01*
X224944285Y-111791047D01*
D13*
X218175623Y-84716861D02*
X216905623Y-84716861D01*
X218054671Y-83386385D02*
X218115147Y-83446861D01*
X218175623Y-83628290D01*
X218175623Y-83749242D01*
X218115147Y-83930671D01*
X217994195Y-84051623D01*
X217873242Y-84112100D01*
X217631338Y-84172576D01*
X217449909Y-84172576D01*
X217208004Y-84112100D01*
X217087052Y-84051623D01*
X216966100Y-83930671D01*
X216905623Y-83749242D01*
X216905623Y-83628290D01*
X216966100Y-83446861D01*
X217026576Y-83386385D01*
X218175623Y-82176861D02*
X218175623Y-82902576D01*
X218175623Y-82539719D02*
X216905623Y-82539719D01*
X217087052Y-82660671D01*
X217208004Y-82781623D01*
X217268480Y-82902576D01*
D12*
X175741080Y-52898633D02*
X176455366Y-52898633D01*
X176598223Y-52946252D01*
X176693461Y-53041490D01*
X176741080Y-53184347D01*
X176741080Y-53279585D01*
X176741080Y-51898633D02*
X176741080Y-52470061D01*
X176741080Y-52184347D02*
X175741080Y-52184347D01*
X175883938Y-52279585D01*
X175979176Y-52374823D01*
X176026795Y-52470061D01*
X222400833Y-87047342D02*
X222353214Y-87094961D01*
X222210357Y-87142580D01*
X222115119Y-87142580D01*
X221972261Y-87094961D01*
X221877023Y-86999723D01*
X221829404Y-86904485D01*
X221781785Y-86714009D01*
X221781785Y-86571152D01*
X221829404Y-86380676D01*
X221877023Y-86285438D01*
X221972261Y-86190200D01*
X222115119Y-86142580D01*
X222210357Y-86142580D01*
X222353214Y-86190200D01*
X222400833Y-86237819D01*
X223353214Y-87142580D02*
X222781785Y-87142580D01*
X223067500Y-87142580D02*
X223067500Y-86142580D01*
X222972261Y-86285438D01*
X222877023Y-86380676D01*
X222781785Y-86428295D01*
X222299233Y-89130142D02*
X222251614Y-89177761D01*
X222108757Y-89225380D01*
X222013519Y-89225380D01*
X221870661Y-89177761D01*
X221775423Y-89082523D01*
X221727804Y-88987285D01*
X221680185Y-88796809D01*
X221680185Y-88653952D01*
X221727804Y-88463476D01*
X221775423Y-88368238D01*
X221870661Y-88273000D01*
X222013519Y-88225380D01*
X222108757Y-88225380D01*
X222251614Y-88273000D01*
X222299233Y-88320619D01*
X222680185Y-88320619D02*
X222727804Y-88273000D01*
X222823042Y-88225380D01*
X223061138Y-88225380D01*
X223156376Y-88273000D01*
X223203995Y-88320619D01*
X223251614Y-88415857D01*
X223251614Y-88511095D01*
X223203995Y-88653952D01*
X222632566Y-89225380D01*
X223251614Y-89225380D01*
X222349233Y-80849742D02*
X222301614Y-80897361D01*
X222158757Y-80944980D01*
X222063519Y-80944980D01*
X221920661Y-80897361D01*
X221825423Y-80802123D01*
X221777804Y-80706885D01*
X221730185Y-80516409D01*
X221730185Y-80373552D01*
X221777804Y-80183076D01*
X221825423Y-80087838D01*
X221920661Y-79992600D01*
X222063519Y-79944980D01*
X222158757Y-79944980D01*
X222301614Y-79992600D01*
X222349233Y-80040219D01*
X222682566Y-79944980D02*
X223301614Y-79944980D01*
X222968280Y-80325933D01*
X223111138Y-80325933D01*
X223206376Y-80373552D01*
X223253995Y-80421171D01*
X223301614Y-80516409D01*
X223301614Y-80754504D01*
X223253995Y-80849742D01*
X223206376Y-80897361D01*
X223111138Y-80944980D01*
X222825423Y-80944980D01*
X222730185Y-80897361D01*
X222682566Y-80849742D01*
X201972142Y-66168566D02*
X202019761Y-66216185D01*
X202067380Y-66359042D01*
X202067380Y-66454280D01*
X202019761Y-66597138D01*
X201924523Y-66692376D01*
X201829285Y-66739995D01*
X201638809Y-66787614D01*
X201495952Y-66787614D01*
X201305476Y-66739995D01*
X201210238Y-66692376D01*
X201115000Y-66597138D01*
X201067380Y-66454280D01*
X201067380Y-66359042D01*
X201115000Y-66216185D01*
X201162619Y-66168566D01*
X201400714Y-65311423D02*
X202067380Y-65311423D01*
X201019761Y-65549519D02*
X201734047Y-65787614D01*
X201734047Y-65168566D01*
X228449142Y-62739566D02*
X228496761Y-62787185D01*
X228544380Y-62930042D01*
X228544380Y-63025280D01*
X228496761Y-63168138D01*
X228401523Y-63263376D01*
X228306285Y-63310995D01*
X228115809Y-63358614D01*
X227972952Y-63358614D01*
X227782476Y-63310995D01*
X227687238Y-63263376D01*
X227592000Y-63168138D01*
X227544380Y-63025280D01*
X227544380Y-62930042D01*
X227592000Y-62787185D01*
X227639619Y-62739566D01*
X227544380Y-61834804D02*
X227544380Y-62310995D01*
X228020571Y-62358614D01*
X227972952Y-62310995D01*
X227925333Y-62215757D01*
X227925333Y-61977661D01*
X227972952Y-61882423D01*
X228020571Y-61834804D01*
X228115809Y-61787185D01*
X228353904Y-61787185D01*
X228449142Y-61834804D01*
X228496761Y-61882423D01*
X228544380Y-61977661D01*
X228544380Y-62215757D01*
X228496761Y-62310995D01*
X228449142Y-62358614D01*
X188444242Y-66270166D02*
X188491861Y-66317785D01*
X188539480Y-66460642D01*
X188539480Y-66555880D01*
X188491861Y-66698738D01*
X188396623Y-66793976D01*
X188301385Y-66841595D01*
X188110909Y-66889214D01*
X187968052Y-66889214D01*
X187777576Y-66841595D01*
X187682338Y-66793976D01*
X187587100Y-66698738D01*
X187539480Y-66555880D01*
X187539480Y-66460642D01*
X187587100Y-66317785D01*
X187634719Y-66270166D01*
X187539480Y-65413023D02*
X187539480Y-65603500D01*
X187587100Y-65698738D01*
X187634719Y-65746357D01*
X187777576Y-65841595D01*
X187968052Y-65889214D01*
X188349004Y-65889214D01*
X188444242Y-65841595D01*
X188491861Y-65793976D01*
X188539480Y-65698738D01*
X188539480Y-65508261D01*
X188491861Y-65413023D01*
X188444242Y-65365404D01*
X188349004Y-65317785D01*
X188110909Y-65317785D01*
X188015671Y-65365404D01*
X187968052Y-65413023D01*
X187920433Y-65508261D01*
X187920433Y-65698738D01*
X187968052Y-65793976D01*
X188015671Y-65841595D01*
X188110909Y-65889214D01*
D13*
X199090638Y-68392523D02*
X199090638Y-67122523D01*
X200421114Y-68271571D02*
X200360638Y-68332047D01*
X200179209Y-68392523D01*
X200058257Y-68392523D01*
X199876828Y-68332047D01*
X199755876Y-68211095D01*
X199695400Y-68090142D01*
X199634923Y-67848238D01*
X199634923Y-67666809D01*
X199695400Y-67424904D01*
X199755876Y-67303952D01*
X199876828Y-67183000D01*
X200058257Y-67122523D01*
X200179209Y-67122523D01*
X200360638Y-67183000D01*
X200421114Y-67243476D01*
X200904923Y-67243476D02*
X200965400Y-67183000D01*
X201086352Y-67122523D01*
X201388733Y-67122523D01*
X201509685Y-67183000D01*
X201570161Y-67243476D01*
X201630638Y-67364428D01*
X201630638Y-67485380D01*
X201570161Y-67666809D01*
X200844447Y-68392523D01*
X201630638Y-68392523D01*
X223829238Y-68240123D02*
X223829238Y-66970123D01*
X225159714Y-68119171D02*
X225099238Y-68179647D01*
X224917809Y-68240123D01*
X224796857Y-68240123D01*
X224615428Y-68179647D01*
X224494476Y-68058695D01*
X224434000Y-67937742D01*
X224373523Y-67695838D01*
X224373523Y-67514409D01*
X224434000Y-67272504D01*
X224494476Y-67151552D01*
X224615428Y-67030600D01*
X224796857Y-66970123D01*
X224917809Y-66970123D01*
X225099238Y-67030600D01*
X225159714Y-67091076D01*
X225583047Y-66970123D02*
X226369238Y-66970123D01*
X225945904Y-67453933D01*
X226127333Y-67453933D01*
X226248285Y-67514409D01*
X226308761Y-67574885D01*
X226369238Y-67695838D01*
X226369238Y-67998219D01*
X226308761Y-68119171D01*
X226248285Y-68179647D01*
X226127333Y-68240123D01*
X225764476Y-68240123D01*
X225643523Y-68179647D01*
X225583047Y-68119171D01*
X182084638Y-68087723D02*
X182084638Y-66817723D01*
X183415114Y-67966771D02*
X183354638Y-68027247D01*
X183173209Y-68087723D01*
X183052257Y-68087723D01*
X182870828Y-68027247D01*
X182749876Y-67906295D01*
X182689400Y-67785342D01*
X182628923Y-67543438D01*
X182628923Y-67362009D01*
X182689400Y-67120104D01*
X182749876Y-66999152D01*
X182870828Y-66878200D01*
X183052257Y-66817723D01*
X183173209Y-66817723D01*
X183354638Y-66878200D01*
X183415114Y-66938676D01*
X184503685Y-67241057D02*
X184503685Y-68087723D01*
X184201304Y-66757247D02*
X183898923Y-67664390D01*
X184685114Y-67664390D01*
D12*
X193330780Y-89779433D02*
X194045066Y-89779433D01*
X194187923Y-89827052D01*
X194283161Y-89922290D01*
X194330780Y-90065147D01*
X194330780Y-90160385D01*
X193426019Y-89350861D02*
X193378400Y-89303242D01*
X193330780Y-89208004D01*
X193330780Y-88969909D01*
X193378400Y-88874671D01*
X193426019Y-88827052D01*
X193521257Y-88779433D01*
X193616495Y-88779433D01*
X193759352Y-88827052D01*
X194330780Y-89398480D01*
X194330780Y-88779433D01*
X169007866Y-107668780D02*
X169007866Y-108383066D01*
X168960247Y-108525923D01*
X168865009Y-108621161D01*
X168722152Y-108668780D01*
X168626914Y-108668780D01*
X169388819Y-107668780D02*
X170007866Y-107668780D01*
X169674533Y-108049733D01*
X169817390Y-108049733D01*
X169912628Y-108097352D01*
X169960247Y-108144971D01*
X170007866Y-108240209D01*
X170007866Y-108478304D01*
X169960247Y-108573542D01*
X169912628Y-108621161D01*
X169817390Y-108668780D01*
X169531676Y-108668780D01*
X169436438Y-108621161D01*
X169388819Y-108573542D01*
X168995266Y-103541680D02*
X168995266Y-104255966D01*
X168947647Y-104398823D01*
X168852409Y-104494061D01*
X168709552Y-104541680D01*
X168614314Y-104541680D01*
X169947647Y-103541680D02*
X169471457Y-103541680D01*
X169423838Y-104017871D01*
X169471457Y-103970252D01*
X169566695Y-103922633D01*
X169804790Y-103922633D01*
X169900028Y-103970252D01*
X169947647Y-104017871D01*
X169995266Y-104113109D01*
X169995266Y-104351204D01*
X169947647Y-104446442D01*
X169900028Y-104494061D01*
X169804790Y-104541680D01*
X169566695Y-104541680D01*
X169471457Y-104494061D01*
X169423838Y-104446442D01*
X168944866Y-99350080D02*
X168944866Y-100064366D01*
X168897247Y-100207223D01*
X168802009Y-100302461D01*
X168659152Y-100350080D01*
X168563914Y-100350080D01*
X169849628Y-99350080D02*
X169659152Y-99350080D01*
X169563914Y-99397700D01*
X169516295Y-99445319D01*
X169421057Y-99588176D01*
X169373438Y-99778652D01*
X169373438Y-100159604D01*
X169421057Y-100254842D01*
X169468676Y-100302461D01*
X169563914Y-100350080D01*
X169754390Y-100350080D01*
X169849628Y-100302461D01*
X169897247Y-100254842D01*
X169944866Y-100159604D01*
X169944866Y-99921509D01*
X169897247Y-99826271D01*
X169849628Y-99778652D01*
X169754390Y-99731033D01*
X169563914Y-99731033D01*
X169468676Y-99778652D01*
X169421057Y-99826271D01*
X169373438Y-99921509D01*
X169007966Y-95324680D02*
X169007966Y-96038966D01*
X168960347Y-96181823D01*
X168865109Y-96277061D01*
X168722252Y-96324680D01*
X168627014Y-96324680D01*
X169388919Y-95324680D02*
X170055585Y-95324680D01*
X169627014Y-96324680D01*
X169020666Y-91108280D02*
X169020666Y-91822566D01*
X168973047Y-91965423D01*
X168877809Y-92060661D01*
X168734952Y-92108280D01*
X168639714Y-92108280D01*
X169639714Y-91536852D02*
X169544476Y-91489233D01*
X169496857Y-91441614D01*
X169449238Y-91346376D01*
X169449238Y-91298757D01*
X169496857Y-91203519D01*
X169544476Y-91155900D01*
X169639714Y-91108280D01*
X169830190Y-91108280D01*
X169925428Y-91155900D01*
X169973047Y-91203519D01*
X170020666Y-91298757D01*
X170020666Y-91346376D01*
X169973047Y-91441614D01*
X169925428Y-91489233D01*
X169830190Y-91536852D01*
X169639714Y-91536852D01*
X169544476Y-91584471D01*
X169496857Y-91632090D01*
X169449238Y-91727328D01*
X169449238Y-91917804D01*
X169496857Y-92013042D01*
X169544476Y-92060661D01*
X169639714Y-92108280D01*
X169830190Y-92108280D01*
X169925428Y-92060661D01*
X169973047Y-92013042D01*
X170020666Y-91917804D01*
X170020666Y-91727328D01*
X169973047Y-91632090D01*
X169925428Y-91584471D01*
X169830190Y-91536852D01*
X232256533Y-67927480D02*
X231923200Y-67451290D01*
X231685104Y-67927480D02*
X231685104Y-66927480D01*
X232066057Y-66927480D01*
X232161295Y-66975100D01*
X232208914Y-67022719D01*
X232256533Y-67117957D01*
X232256533Y-67260814D01*
X232208914Y-67356052D01*
X232161295Y-67403671D01*
X232066057Y-67451290D01*
X231685104Y-67451290D01*
X232589866Y-66927480D02*
X233208914Y-66927480D01*
X232875580Y-67308433D01*
X233018438Y-67308433D01*
X233113676Y-67356052D01*
X233161295Y-67403671D01*
X233208914Y-67498909D01*
X233208914Y-67737004D01*
X233161295Y-67832242D01*
X233113676Y-67879861D01*
X233018438Y-67927480D01*
X232732723Y-67927480D01*
X232637485Y-67879861D01*
X232589866Y-67832242D01*
X232256333Y-75977480D02*
X231923000Y-75501290D01*
X231684904Y-75977480D02*
X231684904Y-74977480D01*
X232065857Y-74977480D01*
X232161095Y-75025100D01*
X232208714Y-75072719D01*
X232256333Y-75167957D01*
X232256333Y-75310814D01*
X232208714Y-75406052D01*
X232161095Y-75453671D01*
X232065857Y-75501290D01*
X231684904Y-75501290D01*
X233113476Y-75310814D02*
X233113476Y-75977480D01*
X232875380Y-74929861D02*
X232637285Y-75644147D01*
X233256333Y-75644147D01*
X202204380Y-104187266D02*
X201728190Y-104520600D01*
X202204380Y-104758695D02*
X201204380Y-104758695D01*
X201204380Y-104377742D01*
X201252000Y-104282504D01*
X201299619Y-104234885D01*
X201394857Y-104187266D01*
X201537714Y-104187266D01*
X201632952Y-104234885D01*
X201680571Y-104282504D01*
X201728190Y-104377742D01*
X201728190Y-104758695D01*
X201204380Y-103282504D02*
X201204380Y-103758695D01*
X201680571Y-103806314D01*
X201632952Y-103758695D01*
X201585333Y-103663457D01*
X201585333Y-103425361D01*
X201632952Y-103330123D01*
X201680571Y-103282504D01*
X201775809Y-103234885D01*
X202013904Y-103234885D01*
X202109142Y-103282504D01*
X202156761Y-103330123D01*
X202204380Y-103425361D01*
X202204380Y-103663457D01*
X202156761Y-103758695D01*
X202109142Y-103806314D01*
X199689880Y-104128466D02*
X199213690Y-104461800D01*
X199689880Y-104699895D02*
X198689880Y-104699895D01*
X198689880Y-104318942D01*
X198737500Y-104223704D01*
X198785119Y-104176085D01*
X198880357Y-104128466D01*
X199023214Y-104128466D01*
X199118452Y-104176085D01*
X199166071Y-104223704D01*
X199213690Y-104318942D01*
X199213690Y-104699895D01*
X198689880Y-103271323D02*
X198689880Y-103461800D01*
X198737500Y-103557038D01*
X198785119Y-103604657D01*
X198927976Y-103699895D01*
X199118452Y-103747514D01*
X199499404Y-103747514D01*
X199594642Y-103699895D01*
X199642261Y-103652276D01*
X199689880Y-103557038D01*
X199689880Y-103366561D01*
X199642261Y-103271323D01*
X199594642Y-103223704D01*
X199499404Y-103176085D01*
X199261309Y-103176085D01*
X199166071Y-103223704D01*
X199118452Y-103271323D01*
X199070833Y-103366561D01*
X199070833Y-103557038D01*
X199118452Y-103652276D01*
X199166071Y-103699895D01*
X199261309Y-103747514D01*
X197365680Y-104077666D02*
X196889490Y-104411000D01*
X197365680Y-104649095D02*
X196365680Y-104649095D01*
X196365680Y-104268142D01*
X196413300Y-104172904D01*
X196460919Y-104125285D01*
X196556157Y-104077666D01*
X196699014Y-104077666D01*
X196794252Y-104125285D01*
X196841871Y-104172904D01*
X196889490Y-104268142D01*
X196889490Y-104649095D01*
X196365680Y-103744333D02*
X196365680Y-103077666D01*
X197365680Y-103506238D01*
X194965680Y-104148866D02*
X194489490Y-104482200D01*
X194965680Y-104720295D02*
X193965680Y-104720295D01*
X193965680Y-104339342D01*
X194013300Y-104244104D01*
X194060919Y-104196485D01*
X194156157Y-104148866D01*
X194299014Y-104148866D01*
X194394252Y-104196485D01*
X194441871Y-104244104D01*
X194489490Y-104339342D01*
X194489490Y-104720295D01*
X194394252Y-103577438D02*
X194346633Y-103672676D01*
X194299014Y-103720295D01*
X194203776Y-103767914D01*
X194156157Y-103767914D01*
X194060919Y-103720295D01*
X194013300Y-103672676D01*
X193965680Y-103577438D01*
X193965680Y-103386961D01*
X194013300Y-103291723D01*
X194060919Y-103244104D01*
X194156157Y-103196485D01*
X194203776Y-103196485D01*
X194299014Y-103244104D01*
X194346633Y-103291723D01*
X194394252Y-103386961D01*
X194394252Y-103577438D01*
X194441871Y-103672676D01*
X194489490Y-103720295D01*
X194584728Y-103767914D01*
X194775204Y-103767914D01*
X194870442Y-103720295D01*
X194918061Y-103672676D01*
X194965680Y-103577438D01*
X194965680Y-103386961D01*
X194918061Y-103291723D01*
X194870442Y-103244104D01*
X194775204Y-103196485D01*
X194584728Y-103196485D01*
X194489490Y-103244104D01*
X194441871Y-103291723D01*
X194394252Y-103386961D01*
X191688780Y-79808366D02*
X191212590Y-80141700D01*
X191688780Y-80379795D02*
X190688780Y-80379795D01*
X190688780Y-79998842D01*
X190736400Y-79903604D01*
X190784019Y-79855985D01*
X190879257Y-79808366D01*
X191022114Y-79808366D01*
X191117352Y-79855985D01*
X191164971Y-79903604D01*
X191212590Y-79998842D01*
X191212590Y-80379795D01*
X191688780Y-79332176D02*
X191688780Y-79141700D01*
X191641161Y-79046461D01*
X191593542Y-78998842D01*
X191450685Y-78903604D01*
X191260209Y-78855985D01*
X190879257Y-78855985D01*
X190784019Y-78903604D01*
X190736400Y-78951223D01*
X190688780Y-79046461D01*
X190688780Y-79236938D01*
X190736400Y-79332176D01*
X190784019Y-79379795D01*
X190879257Y-79427414D01*
X191117352Y-79427414D01*
X191212590Y-79379795D01*
X191260209Y-79332176D01*
X191307828Y-79236938D01*
X191307828Y-79046461D01*
X191260209Y-78951223D01*
X191212590Y-78903604D01*
X191117352Y-78855985D01*
X184729580Y-94610157D02*
X184253390Y-94943490D01*
X184729580Y-95181585D02*
X183729580Y-95181585D01*
X183729580Y-94800633D01*
X183777200Y-94705395D01*
X183824819Y-94657776D01*
X183920057Y-94610157D01*
X184062914Y-94610157D01*
X184158152Y-94657776D01*
X184205771Y-94705395D01*
X184253390Y-94800633D01*
X184253390Y-95181585D01*
X184729580Y-93657776D02*
X184729580Y-94229204D01*
X184729580Y-93943490D02*
X183729580Y-93943490D01*
X183872438Y-94038728D01*
X183967676Y-94133966D01*
X184015295Y-94229204D01*
X183729580Y-93038728D02*
X183729580Y-92943490D01*
X183777200Y-92848252D01*
X183824819Y-92800633D01*
X183920057Y-92753014D01*
X184110533Y-92705395D01*
X184348628Y-92705395D01*
X184539104Y-92753014D01*
X184634342Y-92800633D01*
X184681961Y-92848252D01*
X184729580Y-92943490D01*
X184729580Y-93038728D01*
X184681961Y-93133966D01*
X184634342Y-93181585D01*
X184539104Y-93229204D01*
X184348628Y-93276823D01*
X184110533Y-93276823D01*
X183920057Y-93229204D01*
X183824819Y-93181585D01*
X183777200Y-93133966D01*
X183729580Y-93038728D01*
X181834180Y-103990357D02*
X181357990Y-104323690D01*
X181834180Y-104561785D02*
X180834180Y-104561785D01*
X180834180Y-104180833D01*
X180881800Y-104085595D01*
X180929419Y-104037976D01*
X181024657Y-103990357D01*
X181167514Y-103990357D01*
X181262752Y-104037976D01*
X181310371Y-104085595D01*
X181357990Y-104180833D01*
X181357990Y-104561785D01*
X181834180Y-103037976D02*
X181834180Y-103609404D01*
X181834180Y-103323690D02*
X180834180Y-103323690D01*
X180977038Y-103418928D01*
X181072276Y-103514166D01*
X181119895Y-103609404D01*
X181834180Y-102085595D02*
X181834180Y-102657023D01*
X181834180Y-102371309D02*
X180834180Y-102371309D01*
X180977038Y-102466547D01*
X181072276Y-102561785D01*
X181119895Y-102657023D01*
X187611980Y-96016057D02*
X187135790Y-96349390D01*
X187611980Y-96587485D02*
X186611980Y-96587485D01*
X186611980Y-96206533D01*
X186659600Y-96111295D01*
X186707219Y-96063676D01*
X186802457Y-96016057D01*
X186945314Y-96016057D01*
X187040552Y-96063676D01*
X187088171Y-96111295D01*
X187135790Y-96206533D01*
X187135790Y-96587485D01*
X187611980Y-95063676D02*
X187611980Y-95635104D01*
X187611980Y-95349390D02*
X186611980Y-95349390D01*
X186754838Y-95444628D01*
X186850076Y-95539866D01*
X186897695Y-95635104D01*
X186707219Y-94682723D02*
X186659600Y-94635104D01*
X186611980Y-94539866D01*
X186611980Y-94301771D01*
X186659600Y-94206533D01*
X186707219Y-94158914D01*
X186802457Y-94111295D01*
X186897695Y-94111295D01*
X187040552Y-94158914D01*
X187611980Y-94730342D01*
X187611980Y-94111295D01*
X181986380Y-89457757D02*
X181510190Y-89791090D01*
X181986380Y-90029185D02*
X180986380Y-90029185D01*
X180986380Y-89648233D01*
X181034000Y-89552995D01*
X181081619Y-89505376D01*
X181176857Y-89457757D01*
X181319714Y-89457757D01*
X181414952Y-89505376D01*
X181462571Y-89552995D01*
X181510190Y-89648233D01*
X181510190Y-90029185D01*
X181986380Y-88505376D02*
X181986380Y-89076804D01*
X181986380Y-88791090D02*
X180986380Y-88791090D01*
X181129238Y-88886328D01*
X181224476Y-88981566D01*
X181272095Y-89076804D01*
X180986380Y-88172042D02*
X180986380Y-87552995D01*
X181367333Y-87886328D01*
X181367333Y-87743471D01*
X181414952Y-87648233D01*
X181462571Y-87600614D01*
X181557809Y-87552995D01*
X181795904Y-87552995D01*
X181891142Y-87600614D01*
X181938761Y-87648233D01*
X181986380Y-87743471D01*
X181986380Y-88029185D01*
X181938761Y-88124423D01*
X181891142Y-88172042D01*
X222717642Y-92997280D02*
X222384309Y-92521090D01*
X222146214Y-92997280D02*
X222146214Y-91997280D01*
X222527166Y-91997280D01*
X222622404Y-92044900D01*
X222670023Y-92092519D01*
X222717642Y-92187757D01*
X222717642Y-92330614D01*
X222670023Y-92425852D01*
X222622404Y-92473471D01*
X222527166Y-92521090D01*
X222146214Y-92521090D01*
X223670023Y-92997280D02*
X223098595Y-92997280D01*
X223384309Y-92997280D02*
X223384309Y-91997280D01*
X223289071Y-92140138D01*
X223193833Y-92235376D01*
X223098595Y-92282995D01*
X224527166Y-92330614D02*
X224527166Y-92997280D01*
X224289071Y-91949661D02*
X224050976Y-92663947D01*
X224670023Y-92663947D01*
X215009380Y-105935476D02*
X214533190Y-106268809D01*
X215009380Y-106506904D02*
X214009380Y-106506904D01*
X214009380Y-106125952D01*
X214057000Y-106030714D01*
X214104619Y-105983095D01*
X214199857Y-105935476D01*
X214342714Y-105935476D01*
X214437952Y-105983095D01*
X214485571Y-106030714D01*
X214533190Y-106125952D01*
X214533190Y-106506904D01*
X215009380Y-105506904D02*
X214009380Y-105506904D01*
X215009380Y-104935476D01*
X214009380Y-104935476D01*
X214104619Y-104506904D02*
X214057000Y-104459285D01*
X214009380Y-104364047D01*
X214009380Y-104125952D01*
X214057000Y-104030714D01*
X214104619Y-103983095D01*
X214199857Y-103935476D01*
X214295095Y-103935476D01*
X214437952Y-103983095D01*
X215009380Y-104554523D01*
X215009380Y-103935476D01*
X232671995Y-70978780D02*
X233243423Y-70978780D01*
X232957709Y-71978780D02*
X232957709Y-70978780D01*
X233576757Y-71978780D02*
X233576757Y-70978780D01*
X233957709Y-70978780D01*
X234052947Y-71026400D01*
X234100566Y-71074019D01*
X234148185Y-71169257D01*
X234148185Y-71312114D01*
X234100566Y-71407352D01*
X234052947Y-71454971D01*
X233957709Y-71502590D01*
X233576757Y-71502590D01*
X235100566Y-71978780D02*
X234529138Y-71978780D01*
X234814852Y-71978780D02*
X234814852Y-70978780D01*
X234719614Y-71121638D01*
X234624376Y-71216876D01*
X234529138Y-71264495D01*
X226703395Y-77443080D02*
X227274823Y-77443080D01*
X226989109Y-78443080D02*
X226989109Y-77443080D01*
X227608157Y-78443080D02*
X227608157Y-77443080D01*
X227989109Y-77443080D01*
X228084347Y-77490700D01*
X228131966Y-77538319D01*
X228179585Y-77633557D01*
X228179585Y-77776414D01*
X228131966Y-77871652D01*
X228084347Y-77919271D01*
X227989109Y-77966890D01*
X227608157Y-77966890D01*
X228560538Y-77538319D02*
X228608157Y-77490700D01*
X228703395Y-77443080D01*
X228941490Y-77443080D01*
X229036728Y-77490700D01*
X229084347Y-77538319D01*
X229131966Y-77633557D01*
X229131966Y-77728795D01*
X229084347Y-77871652D01*
X228512919Y-78443080D01*
X229131966Y-78443080D01*
M02*
