M48
; DRILL file {KiCad (5.1.6)-1} date 09/28/20 13:25:23
; FORMAT={-:-/ absolute / metric / decimal}
; #@! TF.CreationDate,2020-09-28T13:25:23+09:00
; #@! TF.GenerationSoftware,Kicad,Pcbnew,(5.1.6)-1
FMAT,2
METRIC
T1C0.635
T2C0.900
T3C1.000
T4C2.700
T5C3.500
%
G90
G05
T1
X179.752Y-94.2
X180.213Y-59.855
X180.361Y-74.405
X182.204Y-62.311
X182.317Y-63.452
X182.982Y-61.409
X184.665Y-64.853
X187.185Y-94.869
X187.644Y-70.811
X187.691Y-72.611
X187.772Y-57.944
X190.85Y-53.296
X196.3Y-75.412
X197.021Y-76.793
X197.367Y-74.418
X198.755Y-70.141
X200.356Y-70.884
X201.629Y-61.286
X201.645Y-64.752
X204.025Y-58.814
X204.63Y-71.923
X204.787Y-80.975
X204.94Y-60.947
X205.851Y-67.797
X206.497Y-69.095
X207.463Y-80.59
X207.488Y-86.466
X207.748Y-68.492
X208.037Y-66.389
X208.115Y-99.962
X208.839Y-78.88
X208.915Y-100.711
X209.868Y-100.025
X210.782Y-58.801
X210.896Y-100.711
X211.105Y-68.543
X211.785Y-67.268
X211.836Y-100.089
X212.184Y-61.442
X212.298Y-64.468
X212.788Y-100.8
X212.928Y-58.801
X213.612Y-60.726
X213.639Y-100.101
X213.748Y-63.596
X214.504Y-62.698
X214.643Y-100.711
X214.973Y-94.831
X217.895Y-58.841
X217.895Y-61.063
X220.324Y-70.624
X220.95Y-60.719
X221.04Y-91.052
X221.64Y-74.511
X222.237Y-80.543
X222.263Y-86.69
X222.263Y-88.722
X228.016Y-63.17
T2
X183.717Y-114.212
X183.717Y-118.502
X185.876Y-114.212
X185.876Y-118.502
X188.035Y-114.212
X188.035Y-118.502
X190.194Y-114.212
X190.194Y-118.502
X192.353Y-114.212
X192.353Y-118.502
X194.512Y-114.212
X194.512Y-118.502
X196.671Y-114.212
X196.671Y-118.502
X198.83Y-114.212
X198.83Y-118.502
X200.989Y-114.212
X200.989Y-118.502
X203.148Y-114.212
X203.148Y-118.502
X205.307Y-114.212
X205.307Y-118.502
X207.466Y-114.212
X207.466Y-118.502
X209.625Y-114.212
X209.625Y-118.502
X211.784Y-114.212
X211.784Y-118.502
X213.943Y-114.212
X213.943Y-118.502
X216.102Y-114.212
X216.102Y-118.502
X218.261Y-114.212
X218.261Y-118.502
X220.42Y-114.212
X220.42Y-118.502
T3
X172.377Y-100.012
X174.917Y-100.012
X178.943Y-47.346
X178.943Y-49.886
X181.483Y-47.346
X181.483Y-49.886
X184.023Y-47.346
X184.023Y-49.886
X186.563Y-47.346
X186.563Y-49.886
X189.103Y-47.346
X189.103Y-49.886
X191.643Y-47.346
X191.643Y-49.886
X194.183Y-47.346
X194.183Y-49.886
X196.723Y-47.346
X196.723Y-49.886
X199.263Y-47.346
X199.263Y-49.886
X201.803Y-47.346
X201.803Y-49.886
X204.343Y-47.346
X204.343Y-49.886
X206.883Y-47.346
X206.883Y-49.886
X209.423Y-47.346
X209.423Y-49.886
X211.963Y-47.346
X211.963Y-49.886
X214.503Y-47.346
X214.503Y-49.886
X217.043Y-47.346
X217.043Y-49.886
X219.583Y-47.346
X219.583Y-49.886
X222.123Y-47.346
X222.123Y-49.886
X224.663Y-47.346
X224.663Y-49.886
X227.203Y-47.346
X227.203Y-49.886
X172.402Y-91.821
X174.942Y-91.821
X172.44Y-108.191
X174.98Y-108.191
X172.402Y-95.885
X174.942Y-95.885
X172.402Y-104.102
X174.942Y-104.102
X191.186Y-88.189
X191.186Y-90.729
T4
X173.965Y-48.539
X232.232Y-48.59
X232.181Y-97.536
T5
X172.197Y-116.357
X231.94Y-116.357
T0
M30
